<svg width="48" height="48" viewBox="0 0 48 48" fill="none" xmlns="http://www.w3.org/2000/svg">
<rect width="48" height="48" fill="white"/>
<circle cx="23.5" cy="25.5" r="18.5" stroke="#424242" stroke-width="2"/>
<path d="M32.25 25.5C32.25 30.7632 31.1812 35.4787 29.4999 38.8414C27.7886 42.2639 25.6096 44 23.5 44C21.3904 44 19.2114 42.2639 17.5001 38.8414C15.8188 35.4787 14.75 30.7632 14.75 25.5C14.75 20.2368 15.8188 15.5213 17.5001 12.1586C19.2114 8.73613 21.3904 7 23.5 7C25.6096 7 27.7886 8.73613 29.4999 12.1586C31.1812 15.5213 32.25 20.2368 32.25 25.5Z" stroke="#424242" stroke-width="2"/>
<path d="M23 7L23.5 43.7813" stroke="#424242" stroke-width="2"/>
<path d="M8.875 36.4688L38.125 36.4688" stroke="#424242" stroke-width="2"/>
<path d="M7 16L39 16" stroke="#424242" stroke-width="2"/>
<rect x="2" y="20" width="44" height="13" fill="white" stroke="#424242" stroke-width="2"/>
<path d="M34 19L34 32.75" stroke="#424242" stroke-width="2"/>
<path d="M41 25.5C41 27.0309 39.9655 28 39 28C38.0345 28 37 27.0309 37 25.5C37 23.9691 38.0345 23 39 23C39.9655 23 41 23.9691 41 25.5Z" stroke="#FF498B" stroke-width="2"/>
<path d="M40 27.5L43 31.25" stroke="#FF498B" stroke-width="2"/>
<path d="M12.3613 28.7549L13.377 24.7168H14.2803L12.7422 30H12.0098L10.7256 25.9961L9.47559 30H8.74316L7.20996 24.7168H8.1084L9.14844 28.6719L10.3789 24.7168H11.1064L12.3613 28.7549ZM19.8809 28.7549L20.8965 24.7168H21.7998L20.2617 30H19.5293L18.2451 25.9961L16.9951 30H16.2627L14.7295 24.7168H15.6279L16.668 28.6719L17.8984 24.7168H18.626L19.8809 28.7549ZM27.4004 28.7549L28.416 24.7168H29.3193L27.7812 30H27.0488L25.7646 25.9961L24.5146 30H23.7822L22.249 24.7168H23.1475L24.1875 28.6719L25.418 24.7168H26.1455L27.4004 28.7549Z" fill="#FF498B"/>
</svg>
