<svg width="48" height="48" viewBox="0 0 48 48" fill="none" xmlns="http://www.w3.org/2000/svg">
<rect width="48" height="48" fill="white"/>
<path d="M30 10.2286C30 12.3184 29.3626 14.5513 28.1548 16.2358C26.9635 17.8974 25.2453 19 23 19C20.7547 19 19.0365 17.8974 17.8452 16.2358C16.6374 14.5513 16 12.3184 16 10.2286C16 8.15236 16.628 6.35053 17.7748 5.08016C18.9081 3.82462 20.6263 3 23 3C25.3737 3 27.0919 3.82462 28.2252 5.08016C29.372 6.35053 30 8.15236 30 10.2286Z" stroke="#424242" stroke-width="2"/>
<path d="M19 23.5V18M27 23V17.5" stroke="#424242" stroke-width="2"/>
<path d="M25.8362 23.6735L32.2108 22.2598C32.9064 22.1055 33.0423 22.0871 33.1645 22.0991C33.2867 22.1112 33.4164 22.1557 34.0686 22.4427L40.2336 25.1553L45.2082 27.3441C45.8075 27.6078 46.1845 27.7751 46.4578 27.9321C46.7102 28.0771 46.7919 28.1687 46.8375 28.2386C46.8831 28.3084 46.934 28.4201 46.9651 28.7095C46.9987 29.0229 47 29.4354 47 30.0901V44C47 44.9711 46.9979 45.5988 46.9357 46.0613C46.8774 46.495 46.7832 46.631 46.7071 46.7071C46.631 46.7832 46.495 46.8774 46.0613 46.9357C45.5988 46.9979 44.9711 47 44 47H4C3.02892 47 2.40121 46.9979 1.9387 46.9357C1.50496 46.8774 1.36902 46.7832 1.29289 46.7071C1.21677 46.631 1.12262 46.495 1.06431 46.0613C1.00212 45.5988 1 44.9711 1 44V30.0079C1 29.3727 1.00127 28.973 1.0332 28.6689C1.06267 28.3881 1.11113 28.2786 1.15466 28.2097C1.19818 28.1408 1.27634 28.05 1.51726 27.9029C1.77828 27.7435 2.13867 27.5709 2.71239 27.2982L12.8243 22.493C13.4994 22.1722 13.6341 22.1221 13.7617 22.1077C13.8893 22.0932 14.0318 22.112 14.7615 22.2738L21.0729 23.6735C21.1088 23.6815 21.1442 23.6893 21.1792 23.6971C22.1558 23.9139 22.7958 24.0559 23.4545 24.0559C24.1133 24.0559 24.7533 23.9139 25.7299 23.6971C25.7649 23.6893 25.8003 23.6815 25.8362 23.6735Z" stroke="#424242" stroke-width="2" stroke-linecap="round" stroke-linejoin="round"/>
<path d="M29.4545 23.5V27L27.5 30.5" stroke="#424242" stroke-width="2"/>
<path d="M16.3636 23V27L18.5 30" stroke="#424242" stroke-width="2"/>
<path d="M22.9705 34.1826C21.4723 34.1826 20.1643 33.8153 19.2642 33.2738C18.3445 32.7206 18 32.095 18 31.5913C18 31.0876 18.3445 30.462 19.2642 29.9088C20.1643 29.3673 21.4723 29 22.9705 29C24.4687 29 25.7767 29.3673 26.6768 29.9088C27.5965 30.462 27.941 31.0876 27.941 31.5913C27.941 31.7797 27.9492 32.0682 27.9596 32.4299C27.9864 33.3634 28.0272 34.7849 27.9758 36.2336C27.9407 37.2248 27.8629 38.1525 27.7198 38.8526C27.6478 39.205 27.5679 39.4552 27.4927 39.6132C27.4762 39.6481 27.4621 39.6736 27.4513 39.6918C27.1866 39.787 26.4509 39.9815 25.6411 39.9988C24.6945 40.019 24.0667 39.7931 23.7896 39.3974C23.7921 39.4009 23.7915 39.399 23.789 39.3907C23.7779 39.3536 23.7281 39.1874 23.7337 38.7918C23.7397 38.3662 23.8033 37.8583 23.8823 37.3288C23.9004 37.2074 23.9199 37.082 23.9394 36.9558C23.9992 36.57 24.0601 36.1772 24.0874 35.8714C24.1047 35.6784 24.1198 35.4182 24.0791 35.1779C24.0595 35.0623 24.0108 34.8449 23.8581 34.6355C23.6692 34.3765 23.3549 34.1826 22.9705 34.1826ZM27.4258 39.7293C27.4257 39.7292 27.4263 39.7286 27.4273 39.7274C27.4263 39.7287 27.4258 39.7293 27.4258 39.7293Z" fill="#FF498B" stroke="#424242" stroke-width="2"/>
<path d="M10.9091 34.5V47.129M37.0909 34.5V47.129" stroke="#424242" stroke-width="2"/>
<path d="M0 40L10 40" stroke="#424242" stroke-width="2"/>
<path d="M37 40L47 40" stroke="#424242" stroke-width="2"/>
</svg>
