<svg width="48" height="48" viewBox="0 0 48 48" fill="none" xmlns="http://www.w3.org/2000/svg">
<rect width="48" height="48" fill="white"/>
<path d="M38.5 40.5C38.5 41.6457 37.4516 43.1445 34.6771 44.4451C32.0221 45.6896 28.2488 46.5 24 46.5C19.7512 46.5 15.9779 45.6896 13.3229 44.4451C10.5484 43.1445 9.5 41.6457 9.5 40.5C9.5 39.3543 10.5484 37.8555 13.3229 36.5549C15.9779 35.3104 19.7512 34.5 24 34.5C28.2488 34.5 32.0221 35.3104 34.6771 36.5549C37.4516 37.8555 38.5 39.3543 38.5 40.5Z" stroke="#424242" stroke-width="3"/>
<path d="M36.5 12.0615C36.5 15.1278 35.0033 22.1632 32.5047 28.4768C31.262 31.617 29.8137 34.4673 28.2574 36.5045C26.6509 38.6076 25.1987 39.5 24 39.5C22.8013 39.5 21.3491 38.6076 19.7426 36.5045C18.1863 34.4673 16.738 31.617 15.4953 28.4768C12.9967 22.1632 11.5 15.1278 11.5 12.0615C11.5 6.43056 16.8788 1.5 24 1.5C31.1212 1.5 36.5 6.43056 36.5 12.0615Z" fill="white" stroke="#424242" stroke-width="3"/>
<circle cx="24" cy="15" r="4.5" stroke="#FF498B" stroke-width="3"/>
</svg>
